<svg width="106" height="36" viewBox="0 0 106 36" fill="none" xmlns="http://www.w3.org/2000/svg">
<mask id="mask0_7104_39" style="mask-type:luminance" maskUnits="userSpaceOnUse" x="0" y="0" width="36" height="36">
<path d="M36 0H0V36H36V0Z" fill="white"/>
</mask>
<g mask="url(#mask0_7104_39)">
<path d="M14.9026 1.19233C16.8189 0.0859565 19.1798 0.085956 21.0961 1.19233L31.0065 6.91406C32.9228 8.02043 34.1032 10.0651 34.1032 12.2778V23.7213C34.1032 25.934 32.9228 27.9787 31.0065 29.0851L21.0961 34.8068C19.1798 35.9132 16.8189 35.9132 14.9026 34.8068L4.99228 29.0851C3.07599 27.9787 1.89551 25.934 1.89551 23.7213V12.2778C1.89551 10.0651 3.07599 8.02043 4.99228 6.91406L14.9026 1.19233Z" fill="url(#paint0_linear_7104_39)"/>
</g>
<path d="M47.517 27V9.54545H54.5057C55.7898 9.54545 56.8608 9.7358 57.7188 10.1165C58.5767 10.4972 59.2216 11.0256 59.6534 11.7017C60.0852 12.3722 60.3011 13.1449 60.3011 14.0199C60.3011 14.7017 60.1648 15.3011 59.892 15.8182C59.6193 16.3295 59.2443 16.75 58.767 17.0795C58.2955 17.4034 57.7557 17.6335 57.1477 17.7699V17.9403C57.8125 17.9687 58.4347 18.1562 59.0142 18.5028C59.5994 18.8494 60.0739 19.3352 60.4375 19.9602C60.8011 20.5795 60.983 21.3182 60.983 22.1761C60.983 23.1023 60.7528 23.929 60.2926 24.6562C59.8381 25.3778 59.1648 25.9489 58.2727 26.3693C57.3807 26.7898 56.2813 27 54.9744 27H47.517ZM51.2074 23.983H54.2159C55.2443 23.983 55.9943 23.7869 56.4659 23.3949C56.9375 22.9972 57.1733 22.4687 57.1733 21.8097C57.1733 21.3267 57.0568 20.9006 56.8239 20.5312C56.5909 20.1619 56.2585 19.8722 55.8267 19.6619C55.4006 19.4517 54.892 19.3466 54.3011 19.3466H51.2074V23.983ZM51.2074 16.8494H53.9432C54.4489 16.8494 54.8977 16.7614 55.2898 16.5852C55.6875 16.4034 56 16.1477 56.2273 15.8182C56.4602 15.4886 56.5767 15.0938 56.5767 14.6335C56.5767 14.0028 56.3523 13.4943 55.9034 13.108C55.4602 12.7216 54.8295 12.5284 54.0114 12.5284H51.2074V16.8494ZM63.3161 27V13.9091H66.9467V27H63.3161ZM65.1399 12.2216C64.6001 12.2216 64.1371 12.0426 63.7507 11.6847C63.37 11.321 63.1797 10.8864 63.1797 10.3807C63.1797 9.88068 63.37 9.4517 63.7507 9.09375C64.1371 8.73011 64.6001 8.54829 65.1399 8.54829C65.6797 8.54829 66.1399 8.73011 66.5206 9.09375C66.907 9.4517 67.1001 9.88068 67.1001 10.3807C67.1001 10.8864 66.907 11.321 66.5206 11.6847C66.1399 12.0426 65.6797 12.2216 65.1399 12.2216ZM69.7869 27V24.8352L76.196 16.9006V16.8068H70.0085V13.9091H80.5682V16.2699L74.5511 24.0085V24.1023H80.7898V27H69.7869ZM87.1967 19.4318V27H83.5661V9.54545H87.0945V16.2188H87.2479C87.5433 15.446 88.0206 14.8409 88.6797 14.4034C89.3388 13.9602 90.1655 13.7386 91.1598 13.7386C92.0689 13.7386 92.8615 13.9375 93.5376 14.3352C94.2195 14.7273 94.7479 15.2926 95.1229 16.0312C95.5036 16.7642 95.6911 17.642 95.6854 18.6648V27H92.0547V19.3125C92.0604 18.5057 91.8558 17.8778 91.4411 17.429C91.032 16.9801 90.4581 16.7557 89.7195 16.7557C89.2251 16.7557 88.7876 16.8608 88.407 17.071C88.032 17.2812 87.7365 17.5881 87.5206 17.9915C87.3104 18.3892 87.2024 18.8693 87.1967 19.4318Z" fill="white"/>
<path d="M18 10.0002C14.8337 10.0252 11.9183 12.1672 11.1579 15.5502C9.217 16.3662 8 18.1942 8 20.3752C8 23.3852 10.3756 26.0002 13.3125 26.0002H23C25.734 26.0002 28 24.0172 28 21.5002C28 19.6852 26.738 18.0732 24.989 17.3602C24.991 17.1822 25 17.0262 25 17.0002C25.03 13.1642 21.791 9.97021 18 10.0002ZM18 12.0002C20.681 11.9792 23.021 14.2872 23 17.0002C23 17.0602 23 17.8632 23 18.0942C23 18.5592 23.296 18.9582 23.75 19.0622C25.066 19.3672 26 20.3992 26 21.5002C26 22.8492 24.684 24.0002 23 24.0002H13.3125C11.5253 24.0002 10 22.3212 10 20.3752C10 18.8822 10.9335 17.6412 12.3438 17.2192C12.7174 17.1072 12.9762 16.7922 13.0312 16.4062C13.4172 13.7002 15.5923 12.0192 18 12.0002Z" fill="white"/>
<defs>
<linearGradient id="paint0_linear_7104_39" x1="17.9994" y1="-0.595596" x2="17.9994" y2="36.5947" gradientUnits="userSpaceOnUse">
<stop stop-color="#22AFFF"/>
<stop offset="1" stop-color="#1D41FF"/>
</linearGradient>
</defs>
</svg>
